<svg width="450" height="110" xmlns="http://www.w3.org/2000/svg"><rect x="0" y="0" width="10" height="10" fill="#161b22" rx="2" ry="2"/><rect x="0" y="15" width="10" height="10" fill="#161b22" rx="2" ry="2"/><rect x="0" y="30" width="10" height="10" fill="#161b22" rx="2" ry="2"/><rect x="0" y="45" width="10" height="10" fill="#161b22" rx="2" ry="2"/><rect x="0" y="60" width="10" height="10" fill="#161b22" rx="2" ry="2"/><rect x="0" y="75" width="10" height="10" fill="#161b22" rx="2" ry="2"/><rect x="0" y="90" width="10" height="10" fill="#161b22" rx="2" ry="2"/><rect x="15" y="0" width="10" height="10" fill="#161b22" rx="2" ry="2"/><rect x="15" y="15" width="10" height="10" fill="#161b22" rx="2" ry="2"/><rect x="15" y="30" width="10" height="10" fill="#161b22" rx="2" ry="2"/><rect x="15" y="45" width="10" height="10" fill="#161b22" rx="2" ry="2"/><rect x="15" y="60" width="10" height="10" fill="#161b22" rx="2" ry="2"/><rect x="15" y="75" width="10" height="10" fill="#161b22" rx="2" ry="2"/><rect x="15" y="90" width="10" height="10" fill="#161b22" rx="2" ry="2"/><rect x="30" y="0" width="10" height="10" fill="#161b22" rx="2" ry="2"/><rect x="30" y="15" width="10" height="10" fill="#161b22" rx="2" ry="2"/><rect x="30" y="30" width="10" height="10" fill="#161b22" rx="2" ry="2"/><rect x="30" y="45" width="10" height="10" fill="#161b22" rx="2" ry="2"/><rect x="30" y="60" width="10" height="10" fill="#161b22" rx="2" ry="2"/><rect x="30" y="75" width="10" height="10" fill="#161b22" rx="2" ry="2"/><rect x="30" y="90" width="10" height="10" fill="#161b22" rx="2" ry="2"/><rect x="45" y="0" width="10" height="10" fill="#161b22" rx="2" ry="2"/><rect x="45" y="15" width="10" height="10" fill="#161b22" rx="2" ry="2"/><rect x="45" y="30" width="10" height="10" fill="#161b22" rx="2" ry="2"/><rect x="45" y="45" width="10" height="10" fill="#161b22" rx="2" ry="2"/><rect x="45" y="60" width="10" height="10" fill="#161b22" rx="2" ry="2"/><rect x="45" y="75" width="10" height="10" fill="#161b22" rx="2" ry="2"/><rect x="45" y="90" width="10" height="10" fill="#161b22" rx="2" ry="2"/><rect x="60" y="0" width="10" height="10" fill="#161b22" rx="2" ry="2"/><rect x="60" y="15" width="10" height="10" fill="#161b22" rx="2" ry="2"/><rect x="60" y="30" width="10" height="10" fill="#161b22" rx="2" ry="2"/><rect x="60" y="45" width="10" height="10" fill="#161b22" rx="2" ry="2"/><rect x="60" y="60" width="10" height="10" fill="#161b22" rx="2" ry="2"/><rect x="60" y="75" width="10" height="10" fill="#161b22" rx="2" ry="2"/><rect x="60" y="90" width="10" height="10" fill="#161b22" rx="2" ry="2"/><rect x="75" y="0" width="10" height="10" fill="#161b22" rx="2" ry="2"/><rect x="75" y="15" width="10" height="10" fill="#161b22" rx="2" ry="2"/><rect x="75" y="30" width="10" height="10" fill="#161b22" rx="2" ry="2"/><rect x="75" y="45" width="10" height="10" fill="#161b22" rx="2" ry="2"/><rect x="75" y="60" width="10" height="10" fill="#161b22" rx="2" ry="2"/><rect x="75" y="75" width="10" height="10" fill="#161b22" rx="2" ry="2"/><rect x="75" y="90" width="10" height="10" fill="#161b22" rx="2" ry="2"/><rect x="90" y="0" width="10" height="10" fill="#161b22" rx="2" ry="2"/><rect x="90" y="15" width="10" height="10" fill="#161b22" rx="2" ry="2"/><rect x="90" y="30" width="10" height="10" fill="#161b22" rx="2" ry="2"/><rect x="90" y="45" width="10" height="10" fill="#161b22" rx="2" ry="2"/><rect x="90" y="60" width="10" height="10" fill="#161b22" rx="2" ry="2"/><rect x="90" y="75" width="10" height="10" fill="#161b22" rx="2" ry="2"/><rect x="90" y="90" width="10" height="10" fill="#161b22" rx="2" ry="2"/><rect x="105" y="0" width="10" height="10" fill="#161b22" rx="2" ry="2"/><rect x="105" y="15" width="10" height="10" fill="#161b22" rx="2" ry="2"/><rect x="105" y="30" width="10" height="10" fill="#161b22" rx="2" ry="2"/><rect x="105" y="45" width="10" height="10" fill="#161b22" rx="2" ry="2"/><rect x="105" y="60" width="10" height="10" fill="#161b22" rx="2" ry="2"/><rect x="105" y="75" width="10" height="10" fill="#161b22" rx="2" ry="2"/><rect x="105" y="90" width="10" height="10" fill="#161b22" rx="2" ry="2"/><rect x="120" y="0" width="10" height="10" fill="#161b22" rx="2" ry="2"/><rect x="120" y="15" width="10" height="10" fill="#161b22" rx="2" ry="2"/><rect x="120" y="30" width="10" height="10" fill="#161b22" rx="2" ry="2"/><rect x="120" y="45" width="10" height="10" fill="#161b22" rx="2" ry="2"/><rect x="120" y="60" width="10" height="10" fill="#161b22" rx="2" ry="2"/><rect x="120" y="75" width="10" height="10" fill="#161b22" rx="2" ry="2"/><rect x="120" y="90" width="10" height="10" fill="#161b22" rx="2" ry="2"/><rect x="135" y="0" width="10" height="10" fill="#161b22" rx="2" ry="2"/><rect x="135" y="15" width="10" height="10" fill="#161b22" rx="2" ry="2"/><rect x="135" y="30" width="10" height="10" fill="#161b22" rx="2" ry="2"/><rect x="135" y="45" width="10" height="10" fill="#161b22" rx="2" ry="2"/><rect x="135" y="60" width="10" height="10" fill="#161b22" rx="2" ry="2"/><rect x="135" y="75" width="10" height="10" fill="#161b22" rx="2" ry="2"/><rect x="135" y="90" width="10" height="10" fill="#161b22" rx="2" ry="2"/><rect x="150" y="0" width="10" height="10" fill="#161b22" rx="2" ry="2"/><rect x="150" y="15" width="10" height="10" fill="#161b22" rx="2" ry="2"/><rect x="150" y="30" width="10" height="10" fill="#161b22" rx="2" ry="2"/><rect x="150" y="45" width="10" height="10" fill="#161b22" rx="2" ry="2"/><rect x="150" y="60" width="10" height="10" fill="#161b22" rx="2" ry="2"/><rect x="150" y="75" width="10" height="10" fill="#161b22" rx="2" ry="2"/><rect x="150" y="90" width="10" height="10" fill="#161b22" rx="2" ry="2"/><rect x="165" y="0" width="10" height="10" fill="#161b22" rx="2" ry="2"/><rect x="165" y="15" width="10" height="10" fill="#39d353" rx="2" ry="2"/><rect x="165" y="30" width="10" height="10" fill="#39d353" rx="2" ry="2"/><rect x="165" y="45" width="10" height="10" fill="#39d353" rx="2" ry="2"/><rect x="165" y="60" width="10" height="10" fill="#39d353" rx="2" ry="2"/><rect x="165" y="75" width="10" height="10" fill="#39d353" rx="2" ry="2"/><rect x="165" y="90" width="10" height="10" fill="#39d353" rx="2" ry="2"/><rect x="180" y="0" width="10" height="10" fill="#39d353" rx="2" ry="2"/><rect x="180" y="15" width="10" height="10" fill="#39d353" rx="2" ry="2"/><rect x="180" y="30" width="10" height="10" fill="#39d353" rx="2" ry="2"/><rect x="180" y="45" width="10" height="10" fill="#39d353" rx="2" ry="2"/><rect x="180" y="60" width="10" height="10" fill="#39d353" rx="2" ry="2"/><rect x="180" y="75" width="10" height="10" fill="#161b22" rx="2" ry="2"/><rect x="180" y="90" width="10" height="10" fill="#39d353" rx="2" ry="2"/></svg>