<svg xmlns="http://www.w3.org/2000/svg" width="340" height="164"><rect width="340" height="164" rx="10" fill="#0d1117"/><rect width="340" height="164" rx="10" fill="none" stroke="#21262d" stroke-width="1"/><text x="38" y="14" fill="#58a6ff" font-size="10" font-family="monospace">Dec</text><text x="102" y="14" fill="#58a6ff" font-size="10" font-family="monospace">Jan</text><text x="166" y="14" fill="#58a6ff" font-size="10" font-family="monospace">Feb</text><text x="230" y="14" fill="#58a6ff" font-size="10" font-family="monospace">Mar</text><text x="310" y="14" fill="#58a6ff" font-size="10" font-family="monospace">Apr</text><text x="4" y="32" fill="#8b949e" font-size="9" font-family="monospace">S</text><text x="4" y="48" fill="#8b949e" font-size="9" font-family="monospace">M</text><text x="4" y="64" fill="#8b949e" font-size="9" font-family="monospace">T</text><text x="4" y="80" fill="#8b949e" font-size="9" font-family="monospace">W</text><text x="4" y="96" fill="#8b949e" font-size="9" font-family="monospace">T</text><text x="4" y="112" fill="#8b949e" font-size="9" font-family="monospace">F</text><text x="4" y="128" fill="#8b949e" font-size="9" font-family="monospace">S</text><rect x="38" y="22" width="13" height="13" rx="3" fill="#161b22"><title>07 Dec 2025: 0 problems</title></rect><rect x="38" y="38" width="13" height="13" rx="3" fill="#161b22"><title>08 Dec 2025: 0 problems</title></rect><rect x="38" y="54" width="13" height="13" rx="3" fill="#161b22"><title>09 Dec 2025: 0 problems</title></rect><rect x="38" y="70" width="13" height="13" rx="3" fill="#161b22"><title>10 Dec 2025: 0 problems</title></rect><rect x="38" y="86" width="13" height="13" rx="3" fill="#161b22"><title>11 Dec 2025: 0 problems</title></rect><rect x="38" y="102" width="13" height="13" rx="3" fill="#161b22"><title>12 Dec 2025: 0 problems</title></rect><rect x="38" y="118" width="13" height="13" rx="3" fill="#161b22"><title>13 Dec 2025: 0 problems</title></rect><rect x="54" y="22" width="13" height="13" rx="3" fill="#161b22"><title>14 Dec 2025: 0 problems</title></rect><rect x="54" y="38" width="13" height="13" rx="3" fill="#161b22"><title>15 Dec 2025: 0 problems</title></rect><rect x="54" y="54" width="13" height="13" rx="3" fill="#161b22"><title>16 Dec 2025: 0 problems</title></rect><rect x="54" y="70" width="13" height="13" rx="3" fill="#161b22"><title>17 Dec 2025: 0 problems</title></rect><rect x="54" y="86" width="13" height="13" rx="3" fill="#161b22"><title>18 Dec 2025: 0 problems</title></rect><rect x="54" y="102" width="13" height="13" rx="3" fill="#161b22"><title>19 Dec 2025: 0 problems</title></rect><rect x="54" y="118" width="13" height="13" rx="3" fill="#161b22"><title>20 Dec 2025: 0 problems</title></rect><rect x="70" y="22" width="13" height="13" rx="3" fill="#161b22"><title>21 Dec 2025: 0 problems</title></rect><rect x="70" y="38" width="13" height="13" rx="3" fill="#161b22"><title>22 Dec 2025: 0 problems</title></rect><rect x="70" y="54" width="13" height="13" rx="3" fill="#161b22"><title>23 Dec 2025: 0 problems</title></rect><rect x="70" y="70" width="13" height="13" rx="3" fill="#161b22"><title>24 Dec 2025: 0 problems</title></rect><rect x="70" y="86" width="13" height="13" rx="3" fill="#161b22"><title>25 Dec 2025: 0 problems</title></rect><rect x="70" y="102" width="13" height="13" rx="3" fill="#161b22"><title>26 Dec 2025: 0 problems</title></rect><rect x="70" y="118" width="13" height="13" rx="3" fill="#161b22"><title>27 Dec 2025: 0 problems</title></rect><rect x="86" y="22" width="13" height="13" rx="3" fill="#161b22"><title>28 Dec 2025: 0 problems</title></rect><rect x="86" y="38" width="13" height="13" rx="3" fill="#161b22"><title>29 Dec 2025: 0 problems</title></rect><rect x="86" y="54" width="13" height="13" rx="3" fill="#161b22"><title>30 Dec 2025: 0 problems</title></rect><rect x="86" y="70" width="13" height="13" rx="3" fill="#161b22"><title>31 Dec 2025: 0 problems</title></rect><rect x="86" y="86" width="13" height="13" rx="3" fill="#161b22"><title>01 Jan 2026: 0 problems</title></rect><rect x="86" y="102" width="13" height="13" rx="3" fill="#161b22"><title>02 Jan 2026: 0 problems</title></rect><rect x="86" y="118" width="13" height="13" rx="3" fill="#161b22"><title>03 Jan 2026: 0 problems</title></rect><rect x="102" y="22" width="13" height="13" rx="3" fill="#161b22"><title>04 Jan 2026: 0 problems</title></rect><rect x="102" y="38" width="13" height="13" rx="3" fill="#161b22"><title>05 Jan 2026: 0 problems</title></rect><rect x="102" y="54" width="13" height="13" rx="3" fill="#161b22"><title>06 Jan 2026: 0 problems</title></rect><rect x="102" y="70" width="13" height="13" rx="3" fill="#161b22"><title>07 Jan 2026: 0 problems</title></rect><rect x="102" y="86" width="13" height="13" rx="3" fill="#161b22"><title>08 Jan 2026: 0 problems</title></rect><rect x="102" y="102" width="13" height="13" rx="3" fill="#161b22"><title>09 Jan 2026: 0 problems</title></rect><rect x="102" y="118" width="13" height="13" rx="3" fill="#161b22"><title>10 Jan 2026: 0 problems</title></rect><rect x="118" y="22" width="13" height="13" rx="3" fill="#161b22"><title>11 Jan 2026: 0 problems</title></rect><rect x="118" y="38" width="13" height="13" rx="3" fill="#161b22"><title>12 Jan 2026: 0 problems</title></rect><rect x="118" y="54" width="13" height="13" rx="3" fill="#161b22"><title>13 Jan 2026: 0 problems</title></rect><rect x="118" y="70" width="13" height="13" rx="3" fill="#161b22"><title>14 Jan 2026: 0 problems</title></rect><rect x="118" y="86" width="13" height="13" rx="3" fill="#161b22"><title>15 Jan 2026: 0 problems</title></rect><rect x="118" y="102" width="13" height="13" rx="3" fill="#161b22"><title>16 Jan 2026: 0 problems</title></rect><rect x="118" y="118" width="13" height="13" rx="3" fill="#161b22"><title>17 Jan 2026: 0 problems</title></rect><rect x="134" y="22" width="13" height="13" rx="3" fill="#161b22"><title>18 Jan 2026: 0 problems</title></rect><rect x="134" y="38" width="13" height="13" rx="3" fill="#161b22"><title>19 Jan 2026: 0 problems</title></rect><rect x="134" y="54" width="13" height="13" rx="3" fill="#161b22"><title>20 Jan 2026: 0 problems</title></rect><rect x="134" y="70" width="13" height="13" rx="3" fill="#161b22"><title>21 Jan 2026: 0 problems</title></rect><rect x="134" y="86" width="13" height="13" rx="3" fill="#161b22"><title>22 Jan 2026: 0 problems</title></rect><rect x="134" y="102" width="13" height="13" rx="3" fill="#161b22"><title>23 Jan 2026: 0 problems</title></rect><rect x="134" y="118" width="13" height="13" rx="3" fill="#161b22"><title>24 Jan 2026: 0 problems</title></rect><rect x="150" y="22" width="13" height="13" rx="3" fill="#161b22"><title>25 Jan 2026: 0 problems</title></rect><rect x="150" y="38" width="13" height="13" rx="3" fill="#161b22"><title>26 Jan 2026: 0 problems</title></rect><rect x="150" y="54" width="13" height="13" rx="3" fill="#161b22"><title>27 Jan 2026: 0 problems</title></rect><rect x="150" y="70" width="13" height="13" rx="3" fill="#161b22"><title>28 Jan 2026: 0 problems</title></rect><rect x="150" y="86" width="13" height="13" rx="3" fill="#161b22"><title>29 Jan 2026: 0 problems</title></rect><rect x="150" y="102" width="13" height="13" rx="3" fill="#161b22"><title>30 Jan 2026: 0 problems</title></rect><rect x="150" y="118" width="13" height="13" rx="3" fill="#161b22"><title>31 Jan 2026: 0 problems</title></rect><rect x="166" y="22" width="13" height="13" rx="3" fill="#161b22"><title>01 Feb 2026: 0 problems</title></rect><rect x="166" y="38" width="13" height="13" rx="3" fill="#161b22"><title>02 Feb 2026: 0 problems</title></rect><rect x="166" y="54" width="13" height="13" rx="3" fill="#161b22"><title>03 Feb 2026: 0 problems</title></rect><rect x="166" y="70" width="13" height="13" rx="3" fill="#161b22"><title>04 Feb 2026: 0 problems</title></rect><rect x="166" y="86" width="13" height="13" rx="3" fill="#161b22"><title>05 Feb 2026: 0 problems</title></rect><rect x="166" y="102" width="13" height="13" rx="3" fill="#161b22"><title>06 Feb 2026: 0 problems</title></rect><rect x="166" y="118" width="13" height="13" rx="3" fill="#161b22"><title>07 Feb 2026: 0 problems</title></rect><rect x="182" y="22" width="13" height="13" rx="3" fill="#161b22"><title>08 Feb 2026: 0 problems</title></rect><rect x="182" y="38" width="13" height="13" rx="3" fill="#161b22"><title>09 Feb 2026: 0 problems</title></rect><rect x="182" y="54" width="13" height="13" rx="3" fill="#161b22"><title>10 Feb 2026: 0 problems</title></rect><rect x="182" y="70" width="13" height="13" rx="3" fill="#161b22"><title>11 Feb 2026: 0 problems</title></rect><rect x="182" y="86" width="13" height="13" rx="3" fill="#161b22"><title>12 Feb 2026: 0 problems</title></rect><rect x="182" y="102" width="13" height="13" rx="3" fill="#161b22"><title>13 Feb 2026: 0 problems</title></rect><rect x="182" y="118" width="13" height="13" rx="3" fill="#161b22"><title>14 Feb 2026: 0 problems</title></rect><rect x="198" y="22" width="13" height="13" rx="3" fill="#161b22"><title>15 Feb 2026: 0 problems</title></rect><rect x="198" y="38" width="13" height="13" rx="3" fill="#161b22"><title>16 Feb 2026: 0 problems</title></rect><rect x="198" y="54" width="13" height="13" rx="3" fill="#161b22"><title>17 Feb 2026: 0 problems</title></rect><rect x="198" y="70" width="13" height="13" rx="3" fill="#161b22"><title>18 Feb 2026: 0 problems</title></rect><rect x="198" y="86" width="13" height="13" rx="3" fill="#161b22"><title>19 Feb 2026: 0 problems</title></rect><rect x="198" y="102" width="13" height="13" rx="3" fill="#161b22"><title>20 Feb 2026: 0 problems</title></rect><rect x="198" y="118" width="13" height="13" rx="3" fill="#161b22"><title>21 Feb 2026: 0 problems</title></rect><rect x="214" y="22" width="13" height="13" rx="3" fill="#161b22"><title>22 Feb 2026: 0 problems</title></rect><rect x="214" y="38" width="13" height="13" rx="3" fill="#161b22"><title>23 Feb 2026: 0 problems</title></rect><rect x="214" y="54" width="13" height="13" rx="3" fill="#161b22"><title>24 Feb 2026: 0 problems</title></rect><rect x="214" y="70" width="13" height="13" rx="3" fill="#161b22"><title>25 Feb 2026: 0 problems</title></rect><rect x="214" y="86" width="13" height="13" rx="3" fill="#161b22"><title>26 Feb 2026: 0 problems</title></rect><rect x="214" y="102" width="13" height="13" rx="3" fill="#161b22"><title>27 Feb 2026: 0 problems</title></rect><rect x="214" y="118" width="13" height="13" rx="3" fill="#161b22"><title>28 Feb 2026: 0 problems</title></rect><rect x="230" y="22" width="13" height="13" rx="3" fill="#161b22"><title>01 Mar 2026: 0 problems</title></rect><rect x="230" y="38" width="13" height="13" rx="3" fill="#161b22"><title>02 Mar 2026: 0 problems</title></rect><rect x="230" y="54" width="13" height="13" rx="3" fill="#161b22"><title>03 Mar 2026: 0 problems</title></rect><rect x="230" y="70" width="13" height="13" rx="3" fill="#161b22"><title>04 Mar 2026: 0 problems</title></rect><rect x="230" y="86" width="13" height="13" rx="3" fill="#161b22"><title>05 Mar 2026: 0 problems</title></rect><rect x="230" y="102" width="13" height="13" rx="3" fill="#161b22"><title>06 Mar 2026: 0 problems</title></rect><rect x="230" y="118" width="13" height="13" rx="3" fill="#161b22"><title>07 Mar 2026: 0 problems</title></rect><rect x="246" y="22" width="13" height="13" rx="3" fill="#161b22"><title>08 Mar 2026: 0 problems</title></rect><rect x="246" y="38" width="13" height="13" rx="3" fill="#161b22"><title>09 Mar 2026: 0 problems</title></rect><rect x="246" y="54" width="13" height="13" rx="3" fill="#161b22"><title>10 Mar 2026: 0 problems</title></rect><rect x="246" y="70" width="13" height="13" rx="3" fill="#161b22"><title>11 Mar 2026: 0 problems</title></rect><rect x="246" y="86" width="13" height="13" rx="3" fill="#161b22"><title>12 Mar 2026: 0 problems</title></rect><rect x="246" y="102" width="13" height="13" rx="3" fill="#161b22"><title>13 Mar 2026: 0 problems</title></rect><rect x="246" y="118" width="13" height="13" rx="3" fill="#161b22"><title>14 Mar 2026: 0 problems</title></rect><rect x="262" y="22" width="13" height="13" rx="3" fill="#161b22"><title>15 Mar 2026: 0 problems</title></rect><rect x="262" y="38" width="13" height="13" rx="3" fill="#161b22"><title>16 Mar 2026: 0 problems</title></rect><rect x="262" y="54" width="13" height="13" rx="3" fill="#161b22"><title>17 Mar 2026: 0 problems</title></rect><rect x="262" y="70" width="13" height="13" rx="3" fill="#161b22"><title>18 Mar 2026: 0 problems</title></rect><rect x="262" y="86" width="13" height="13" rx="3" fill="#161b22"><title>19 Mar 2026: 0 problems</title></rect><rect x="262" y="102" width="13" height="13" rx="3" fill="#161b22"><title>20 Mar 2026: 0 problems</title></rect><rect x="262" y="118" width="13" height="13" rx="3" fill="#161b22"><title>21 Mar 2026: 0 problems</title></rect><rect x="278" y="22" width="13" height="13" rx="3" fill="#161b22"><title>22 Mar 2026: 0 problems</title></rect><rect x="278" y="38" width="13" height="13" rx="3" fill="#161b22"><title>23 Mar 2026: 0 problems</title></rect><rect x="278" y="54" width="13" height="13" rx="3" fill="#0e4429"><title>24 Mar 2026: 1 problem</title></rect><rect x="278" y="70" width="13" height="13" rx="3" fill="#006d32"><title>25 Mar 2026: 2 problems</title></rect><rect x="278" y="86" width="13" height="13" rx="3" fill="#26a641"><title>26 Mar 2026: 3 problems</title></rect><rect x="278" y="102" width="13" height="13" rx="3" fill="#006d32"><title>27 Mar 2026: 2 problems</title></rect><rect x="278" y="118" width="13" height="13" rx="3" fill="#006d32"><title>28 Mar 2026: 2 problems</title></rect><rect x="294" y="22" width="13" height="13" rx="3" fill="#26a641"><title>29 Mar 2026: 4 problems</title></rect><rect x="294" y="38" width="13" height="13" rx="3" fill="#006d32"><title>30 Mar 2026: 2 problems</title></rect><rect x="294" y="54" width="13" height="13" rx="3" fill="#26a641"><title>31 Mar 2026: 3 problems</title></rect><rect x="294" y="70" width="13" height="13" rx="3" fill="#006d32"><title>01 Apr 2026: 2 problems</title></rect><rect x="294" y="86" width="13" height="13" rx="3" fill="#26a641"><title>02 Apr 2026: 4 problems</title></rect><rect x="294" y="102" width="13" height="13" rx="3" fill="#26a641"><title>03 Apr 2026: 3 problems</title></rect><rect x="294" y="118" width="13" height="13" rx="3" fill="#161b22"><title>04 Apr 2026: 0 problems</title></rect><rect x="310" y="22" width="13" height="13" rx="3" fill="#26a641"><title>05 Apr 2026: 4 problems</title></rect><rect x="310" y="38" width="13" height="13" rx="3" fill="#26a641"><title>06 Apr 2026: 3 problems</title></rect><rect x="310" y="54" width="13" height="13" rx="3" fill="#006d32"><title>07 Apr 2026: 2 problems</title></rect><rect x="310" y="70" width="13" height="13" rx="3" fill="#161b22"><title>08 Apr 2026: 0 problems</title></rect><rect x="310" y="86" width="13" height="13" rx="3" fill="#0d1117" opacity="0.4"/><rect x="310" y="102" width="13" height="13" rx="3" fill="#0d1117" opacity="0.4"/><rect x="310" y="118" width="13" height="13" rx="3" fill="#0d1117" opacity="0.4"/><text x="230" y="158" fill="#8b949e" font-size="9" font-family="monospace">Less</text><rect x="255" y="146" width="12" height="12" rx="3" fill="#161b22"/><rect x="271" y="146" width="12" height="12" rx="3" fill="#0e4429"/><rect x="287" y="146" width="12" height="12" rx="3" fill="#006d32"/><rect x="303" y="146" width="12" height="12" rx="3" fill="#26a641"/><rect x="319" y="146" width="12" height="12" rx="3" fill="#39d353"/><text x="338" y="158" fill="#8b949e" font-size="9" font-family="monospace" text-anchor="end">More</text></svg>