<svg xmlns="http://www.w3.org/2000/svg" width="182" height="104" style="background:#0d1117;padding:4px;border-radius:6px"><rect x="0" y="0" width="10" height="10" fill="#161b22" rx="2"><title>Jan 06: 0</title></rect><rect x="0" y="13" width="10" height="10" fill="#161b22" rx="2"><title>Jan 07: 0</title></rect><rect x="0" y="26" width="10" height="10" fill="#161b22" rx="2"><title>Jan 08: 0</title></rect><rect x="0" y="39" width="10" height="10" fill="#161b22" rx="2"><title>Jan 09: 0</title></rect><rect x="0" y="52" width="10" height="10" fill="#161b22" rx="2"><title>Jan 10: 0</title></rect><rect x="0" y="65" width="10" height="10" fill="#161b22" rx="2"><title>Jan 11: 0</title></rect><rect x="0" y="78" width="10" height="10" fill="#161b22" rx="2"><title>Jan 12: 0</title></rect><rect x="13" y="0" width="10" height="10" fill="#161b22" rx="2"><title>Jan 13: 0</title></rect><rect x="13" y="13" width="10" height="10" fill="#161b22" rx="2"><title>Jan 14: 0</title></rect><rect x="13" y="26" width="10" height="10" fill="#161b22" rx="2"><title>Jan 15: 0</title></rect><rect x="13" y="39" width="10" height="10" fill="#161b22" rx="2"><title>Jan 16: 0</title></rect><rect x="13" y="52" width="10" height="10" fill="#161b22" rx="2"><title>Jan 17: 0</title></rect><rect x="13" y="65" width="10" height="10" fill="#161b22" rx="2"><title>Jan 18: 0</title></rect><rect x="13" y="78" width="10" height="10" fill="#161b22" rx="2"><title>Jan 19: 0</title></rect><rect x="26" y="0" width="10" height="10" fill="#161b22" rx="2"><title>Jan 20: 0</title></rect><rect x="26" y="13" width="10" height="10" fill="#161b22" rx="2"><title>Jan 21: 0</title></rect><rect x="26" y="26" width="10" height="10" fill="#161b22" rx="2"><title>Jan 22: 0</title></rect><rect x="26" y="39" width="10" height="10" fill="#161b22" rx="2"><title>Jan 23: 0</title></rect><rect x="26" y="52" width="10" height="10" fill="#161b22" rx="2"><title>Jan 24: 0</title></rect><rect x="26" y="65" width="10" height="10" fill="#161b22" rx="2"><title>Jan 25: 0</title></rect><rect x="26" y="78" width="10" height="10" fill="#161b22" rx="2"><title>Jan 26: 0</title></rect><rect x="39" y="0" width="10" height="10" fill="#161b22" rx="2"><title>Jan 27: 0</title></rect><rect x="39" y="13" width="10" height="10" fill="#161b22" rx="2"><title>Jan 28: 0</title></rect><rect x="39" y="26" width="10" height="10" fill="#161b22" rx="2"><title>Jan 29: 0</title></rect><rect x="39" y="39" width="10" height="10" fill="#161b22" rx="2"><title>Jan 30: 0</title></rect><rect x="39" y="52" width="10" height="10" fill="#161b22" rx="2"><title>Jan 31: 0</title></rect><rect x="39" y="65" width="10" height="10" fill="#161b22" rx="2"><title>Feb 01: 0</title></rect><rect x="39" y="78" width="10" height="10" fill="#161b22" rx="2"><title>Feb 02: 0</title></rect><rect x="52" y="0" width="10" height="10" fill="#161b22" rx="2"><title>Feb 03: 0</title></rect><rect x="52" y="13" width="10" height="10" fill="#161b22" rx="2"><title>Feb 04: 0</title></rect><rect x="52" y="26" width="10" height="10" fill="#161b22" rx="2"><title>Feb 05: 0</title></rect><rect x="52" y="39" width="10" height="10" fill="#161b22" rx="2"><title>Feb 06: 0</title></rect><rect x="52" y="52" width="10" height="10" fill="#161b22" rx="2"><title>Feb 07: 0</title></rect><rect x="52" y="65" width="10" height="10" fill="#161b22" rx="2"><title>Feb 08: 0</title></rect><rect x="52" y="78" width="10" height="10" fill="#161b22" rx="2"><title>Feb 09: 0</title></rect><rect x="65" y="0" width="10" height="10" fill="#161b22" rx="2"><title>Feb 10: 0</title></rect><rect x="65" y="13" width="10" height="10" fill="#161b22" rx="2"><title>Feb 11: 0</title></rect><rect x="65" y="26" width="10" height="10" fill="#161b22" rx="2"><title>Feb 12: 0</title></rect><rect x="65" y="39" width="10" height="10" fill="#161b22" rx="2"><title>Feb 13: 0</title></rect><rect x="65" y="52" width="10" height="10" fill="#161b22" rx="2"><title>Feb 14: 0</title></rect><rect x="65" y="65" width="10" height="10" fill="#161b22" rx="2"><title>Feb 15: 0</title></rect><rect x="65" y="78" width="10" height="10" fill="#161b22" rx="2"><title>Feb 16: 0</title></rect><rect x="78" y="0" width="10" height="10" fill="#161b22" rx="2"><title>Feb 17: 0</title></rect><rect x="78" y="13" width="10" height="10" fill="#161b22" rx="2"><title>Feb 18: 0</title></rect><rect x="78" y="26" width="10" height="10" fill="#161b22" rx="2"><title>Feb 19: 0</title></rect><rect x="78" y="39" width="10" height="10" fill="#161b22" rx="2"><title>Feb 20: 0</title></rect><rect x="78" y="52" width="10" height="10" fill="#161b22" rx="2"><title>Feb 21: 0</title></rect><rect x="78" y="65" width="10" height="10" fill="#161b22" rx="2"><title>Feb 22: 0</title></rect><rect x="78" y="78" width="10" height="10" fill="#161b22" rx="2"><title>Feb 23: 0</title></rect><rect x="91" y="0" width="10" height="10" fill="#161b22" rx="2"><title>Feb 24: 0</title></rect><rect x="91" y="13" width="10" height="10" fill="#161b22" rx="2"><title>Feb 25: 0</title></rect><rect x="91" y="26" width="10" height="10" fill="#161b22" rx="2"><title>Feb 26: 0</title></rect><rect x="91" y="39" width="10" height="10" fill="#161b22" rx="2"><title>Feb 27: 0</title></rect><rect x="91" y="52" width="10" height="10" fill="#161b22" rx="2"><title>Feb 28: 0</title></rect><rect x="91" y="65" width="10" height="10" fill="#161b22" rx="2"><title>Mar 01: 0</title></rect><rect x="91" y="78" width="10" height="10" fill="#161b22" rx="2"><title>Mar 02: 0</title></rect><rect x="104" y="0" width="10" height="10" fill="#161b22" rx="2"><title>Mar 03: 0</title></rect><rect x="104" y="13" width="10" height="10" fill="#161b22" rx="2"><title>Mar 04: 0</title></rect><rect x="104" y="26" width="10" height="10" fill="#161b22" rx="2"><title>Mar 05: 0</title></rect><rect x="104" y="39" width="10" height="10" fill="#161b22" rx="2"><title>Mar 06: 0</title></rect><rect x="104" y="52" width="10" height="10" fill="#161b22" rx="2"><title>Mar 07: 0</title></rect><rect x="104" y="65" width="10" height="10" fill="#161b22" rx="2"><title>Mar 08: 0</title></rect><rect x="104" y="78" width="10" height="10" fill="#161b22" rx="2"><title>Mar 09: 0</title></rect><rect x="117" y="0" width="10" height="10" fill="#161b22" rx="2"><title>Mar 10: 0</title></rect><rect x="117" y="13" width="10" height="10" fill="#161b22" rx="2"><title>Mar 11: 0</title></rect><rect x="117" y="26" width="10" height="10" fill="#161b22" rx="2"><title>Mar 12: 0</title></rect><rect x="117" y="39" width="10" height="10" fill="#161b22" rx="2"><title>Mar 13: 0</title></rect><rect x="117" y="52" width="10" height="10" fill="#161b22" rx="2"><title>Mar 14: 0</title></rect><rect x="117" y="65" width="10" height="10" fill="#161b22" rx="2"><title>Mar 15: 0</title></rect><rect x="117" y="78" width="10" height="10" fill="#161b22" rx="2"><title>Mar 16: 0</title></rect><rect x="130" y="0" width="10" height="10" fill="#161b22" rx="2"><title>Mar 17: 0</title></rect><rect x="130" y="13" width="10" height="10" fill="#161b22" rx="2"><title>Mar 18: 0</title></rect><rect x="130" y="26" width="10" height="10" fill="#161b22" rx="2"><title>Mar 19: 0</title></rect><rect x="130" y="39" width="10" height="10" fill="#161b22" rx="2"><title>Mar 20: 0</title></rect><rect x="130" y="52" width="10" height="10" fill="#161b22" rx="2"><title>Mar 21: 0</title></rect><rect x="130" y="65" width="10" height="10" fill="#161b22" rx="2"><title>Mar 22: 0</title></rect><rect x="130" y="78" width="10" height="10" fill="#161b22" rx="2"><title>Mar 23: 0</title></rect><rect x="143" y="0" width="10" height="10" fill="#0e4429" rx="2"><title>Mar 24: 1</title></rect><rect x="143" y="13" width="10" height="10" fill="#006d32" rx="2"><title>Mar 25: 2</title></rect><rect x="143" y="26" width="10" height="10" fill="#26a641" rx="2"><title>Mar 26: 3</title></rect><rect x="143" y="39" width="10" height="10" fill="#006d32" rx="2"><title>Mar 27: 2</title></rect><rect x="143" y="52" width="10" height="10" fill="#006d32" rx="2"><title>Mar 28: 2</title></rect><rect x="143" y="65" width="10" height="10" fill="#39d353" rx="2"><title>Mar 29: 4</title></rect><rect x="143" y="78" width="10" height="10" fill="#006d32" rx="2"><title>Mar 30: 2</title></rect><rect x="156" y="0" width="10" height="10" fill="#26a641" rx="2"><title>Mar 31: 3</title></rect><rect x="156" y="13" width="10" height="10" fill="#006d32" rx="2"><title>Apr 01: 2</title></rect><rect x="156" y="26" width="10" height="10" fill="#39d353" rx="2"><title>Apr 02: 4</title></rect><rect x="156" y="39" width="10" height="10" fill="#26a641" rx="2"><title>Apr 03: 3</title></rect><rect x="156" y="52" width="10" height="10" fill="#161b22" rx="2"><title>Apr 04: 0</title></rect><rect x="156" y="65" width="10" height="10" fill="#39d353" rx="2"><title>Apr 05: 4</title></rect><rect x="156" y="78" width="10" height="10" fill="#26a641" rx="2"><title>Apr 06: 3</title></rect></svg>