<svg xmlns="http://www.w3.org/2000/svg" width="740" height="340"><rect width="100%" height="100%" rx="14" fill="#11111b"/><text x="370" y="30" font-family="monospace" font-size="11" font-weight="700" fill="#585b70" text-anchor="middle">// GOALS &amp; TARGETS //</text><text x="145" y="48" font-family="monospace" font-size="10" font-weight="700" fill="#cba6f7" text-anchor="end">STRIVER A2Z</text><text x="710" y="48" font-family="monospace" font-size="11" font-weight="700" fill="#cba6f7" text-anchor="end">53/455 (11.6%)</text><rect x="150" y="60" width="560" height="12" rx="6" fill="#1e1e2e"/><rect x="150" y="60" width="0" height="12" rx="6" fill="#cba6f7"><animate attributeName="width" from="0" to="65" dur="1.4s" begin="0.0s" fill="freeze" calcMode="spline" keyTimes="0;1" keySplines="0.4 0 0.6 1"/></rect><text x="145" y="128" font-family="monospace" font-size="10" font-weight="700" fill="#89dceb" text-anchor="end">LEETCODE 500+</text><text x="710" y="128" font-family="monospace" font-size="11" font-weight="700" fill="#89dceb" text-anchor="end">109/500 (21.8%)</text><rect x="150" y="140" width="560" height="12" rx="6" fill="#1e1e2e"/><rect x="150" y="140" width="0" height="12" rx="6" fill="#89dceb"><animate attributeName="width" from="0" to="122" dur="1.4s" begin="0.3s" fill="freeze" calcMode="spline" keyTimes="0;1" keySplines="0.4 0 0.6 1"/></rect><text x="145" y="208" font-family="monospace" font-size="10" font-weight="700" fill="#89b4fa" text-anchor="end">CODEFORCES</text><text x="710" y="208" font-family="monospace" font-size="11" font-weight="700" fill="#89b4fa" text-anchor="end">1200 Target (20%)</text><rect x="150" y="220" width="560" height="12" rx="6" fill="#1e1e2e"/><rect x="150" y="220" width="0" height="12" rx="6" fill="#89b4fa"><animate attributeName="width" from="0" to="112" dur="1.4s" begin="0.6s" fill="freeze" calcMode="spline" keyTimes="0;1" keySplines="0.4 0 0.6 1"/></rect><text x="145" y="288" font-family="monospace" font-size="10" font-weight="700" fill="#f9e2af" text-anchor="end">STREAK</text><text x="710" y="288" font-family="monospace" font-size="11" font-weight="700" fill="#f9e2af" text-anchor="end">76/90d (84.4%)</text><rect x="150" y="300" width="560" height="12" rx="6" fill="#1e1e2e"/><rect x="150" y="300" width="0" height="12" rx="6" fill="#f9e2af"><animate attributeName="width" from="0" to="473" dur="1.4s" begin="0.9s" fill="freeze" calcMode="spline" keyTimes="0;1" keySplines="0.4 0 0.6 1"/></rect></svg>